#define app_width 16
#define app_height 16
static unsigned char app_bits[] = {
   0x00, 0x00, 0xc0, 0x03, 0xf0, 0x0f, 0xf8, 0x1f, 0xdc, 0x3f, 0xcc, 0x3f,
   0x8e, 0x7f, 0xa6, 0x7b, 0xb6, 0x77, 0xfe, 0x79, 0xfc, 0x31, 0xfc, 0x3f,
   0xf8, 0x3f, 0xf0, 0x3f, 0xc0, 0x03, 0x00, 0x00 };
